<svg aria-hidden="true" style="position: absolute; width: 0; height: 0; overflow: hidden;" version="1.1" xmlns="http://www.w3.org/2000/svg" xmlns:xlink="http://www.w3.org/1999/xlink">
<defs>
<symbol id="cart" viewBox="0 0 32 32">
<title>cart</title>
<path d="M20.664 18.499c-0.345 0-0.625 0.28-0.625 0.625s0.28 0.625 0.625 0.625h7.467c0.283 0 0.531-0.191 0.604-0.464l3.244-12.185c0.050-0.188 0.010-0.388-0.108-0.542s-0.301-0.244-0.496-0.244h-8.694c-0.308-2.374-2.341-4.215-4.798-4.215s-4.49 1.84-4.798 4.215h-7.161v-0.912c0-1.254-1.020-2.274-2.274-2.274h-3.024c-0.345 0-0.625 0.28-0.625 0.625s0.28 0.625 0.625 0.625h3.025c0.565 0 1.024 0.46 1.024 1.024v10.837c0 1.056 0.469 2.003 1.209 2.647-0.9 0.512-1.508 1.479-1.508 2.586 0 1.639 1.334 2.973 2.973 2.973h0.154c-0.465 0.575-0.744 1.307-0.744 2.102 0 1.848 1.504 3.352 3.352 3.352s3.352-1.504 3.352-3.352c0-0.796-0.279-1.527-0.744-2.102h7.693c-0.003 0.004-0.006 0.007-0.009 0.011-0.559 0.7-0.811 1.575-0.711 2.465 0.187 1.67 1.641 2.979 3.325 2.979 1.017 0 1.992-0.466 2.626-1.261 0.559-0.7 0.811-1.575 0.711-2.465-0.074-0.657-0.335-1.249-0.723-1.728h2.5c0.345 0 0.625-0.28 0.625-0.625s-0.28-0.625-0.625-0.625h-20.783c-0.95 0-1.723-0.773-1.723-1.723s0.773-1.723 1.723-1.723h0.83c0.002 0 0.003 0 0.005 0h6.991c0.345 0 0.625-0.28 0.625-0.625s-0.28-0.625-0.625-0.625h-6.989c-1.231 0-2.262-1.029-2.262-2.26v-8.675h7.16c0.308 2.378 2.405 4.215 4.8 4.215s4.492-1.839 4.8-4.215h7.879l-2.911 10.935zM12.213 26.548c0 1.159-0.943 2.102-2.102 2.102s-2.102-0.943-2.102-2.102c0-1.159 0.943-2.102 2.102-2.102s2.102 0.943 2.102 2.102zM25.112 26.313c0.063 0.558-0.096 1.107-0.446 1.546s-0.85 0.715-1.408 0.778c-1.152 0.129-2.194-0.703-2.323-1.855-0.139-1.234 0.858-2.337 2.096-2.337 1.053 0.003 1.962 0.797 2.082 1.868zM17.883 3.35c1.979 0 3.59 1.61 3.59 3.59s-1.61 3.59-3.59 3.59-3.59-1.61-3.59-3.59c0-1.979 1.61-3.59 3.59-3.59z"></path>
<path d="M16.177 7.57h1.081v1.081c0 0.345 0.28 0.625 0.625 0.625s0.625-0.28 0.625-0.625v-1.081h1.081c0.345 0 0.625-0.28 0.625-0.625s-0.28-0.625-0.625-0.625h-1.081v-1.081c0-0.345-0.28-0.625-0.625-0.625s-0.625 0.28-0.625 0.625v1.081h-1.081c-0.345 0-0.625 0.28-0.625 0.625s0.28 0.625 0.625 0.625z"></path>
<path d="M18.465 18.777c-0.149-0.228-0.442-0.329-0.701-0.251-0.261 0.078-0.443 0.326-0.444 0.598-0.002 0.55 0.697 0.832 1.077 0.432 0.2-0.21 0.229-0.537 0.068-0.779z"></path>
</symbol>
<symbol id="call" viewBox="0 0 32 32">
<title>call</title>
<path d="M31.16 24.686l-6.477-4.319c-0.822-0.544-1.924-0.365-2.531 0.411l-1.887 2.426c-0.149 0.195-0.381 0.319-0.642 0.319-0.144 0-0.279-0.038-0.396-0.104l0.004 0.002-0.359-0.198c-1.19-0.648-2.67-1.456-5.652-4.439s-3.791-4.465-4.44-5.652l-0.197-0.359c-0.065-0.114-0.104-0.251-0.104-0.396 0-0.261 0.124-0.492 0.315-0.64l0.002-0.001 2.424-1.886c0.776-0.608 0.955-1.709 0.412-2.531l-4.319-6.477c-0.557-0.837-1.673-1.089-2.535-0.571l-2.708 1.627c-0.841 0.501-1.464 1.293-1.735 2.234l-0.007 0.027c-0.975 3.554-0.242 9.687 8.793 18.722 7.187 7.186 12.537 9.119 16.214 9.119 0.012 0 0.026 0 0.040 0 0.877 0 1.726-0.12 2.532-0.343l-0.066 0.016c0.968-0.277 1.761-0.901 2.251-1.725l0.010-0.018 1.629-2.707c0.519-0.862 0.268-1.979-0.57-2.536zM30.812 26.675l-1.625 2.708c-0.36 0.607-0.929 1.058-1.607 1.256l-0.019 0.005c-3.281 0.901-9.012 0.155-17.685-8.519s-9.419-14.404-8.519-17.685c0.203-0.698 0.654-1.269 1.249-1.622l0.013-0.007 2.708-1.625c0.374-0.225 0.859-0.116 1.1 0.247l4.316 6.476c0.236 0.357 0.158 0.835-0.178 1.099l-2.425 1.886c-0.738 0.564-0.949 1.585-0.494 2.395l0.193 0.35c0.682 1.25 1.529 2.805 4.622 5.898s4.648 3.94 5.897 4.622l0.35 0.193c0.81 0.454 1.831 0.244 2.395-0.494l1.886-2.425c0.264-0.336 0.742-0.414 1.099-0.178l6.476 4.319c0.364 0.241 0.473 0.726 0.247 1.1zM18.132 5.336c5.004 0.006 9.060 4.061 9.065 9.065 0 0.295 0.239 0.533 0.533 0.533s0.533-0.239 0.533-0.533c-0.006-5.593-4.539-10.126-10.132-10.132-0.295 0-0.533 0.239-0.533 0.533s0.239 0.533 0.533 0.533z"></path>
<path d="M18.132 8.536c3.238 0.004 5.862 2.628 5.866 5.866 0 0.294 0.239 0.533 0.533 0.533s0.533-0.239 0.533-0.533v0c-0.004-3.827-3.106-6.928-6.932-6.932-0.295 0-0.533 0.239-0.533 0.533s0.239 0.533 0.533 0.533z"></path>
<path d="M18.132 11.735c1.472 0.002 2.664 1.194 2.666 2.666 0 0.294 0.239 0.533 0.533 0.533s0.533-0.239 0.533-0.533v0c-0.002-2.061-1.672-3.73-3.733-3.733-0.295 0-0.533 0.239-0.533 0.533s0.239 0.533 0.533 0.533z"></path>
</symbol>
<symbol id="clock" viewBox="0 0 32 32">
<title>clock</title>
<path d="M16 32c-8.823 0-16-7.177-16-16s7.177-16 16-16 16 7.177 16 16-7.177 16-16 16zM16 2c-7.72 0-14 6.28-14 14s6.28 14 14 14 14-6.28 14-14-6.28-14-14-14z"></path>
<path d="M23 24.667c-0.256 0-0.512-0.097-0.707-0.293l-7-7c-0.188-0.188-0.293-0.443-0.293-0.707v-9.334c0-0.552 0.448-1 1-1s1 0.448 1 1v8.919l6.707 6.707c0.391 0.391 0.391 1.024 0 1.415-0.195 0.196-0.451 0.293-0.707 0.293z"></path>
</symbol>
<symbol id="compass" viewBox="0 0 32 32">
<title>compass</title>
<path d="M16 0c-8.836 0-16 7.164-16 16s7.164 16 16 16 16-7.164 16-16c-0.010-8.832-7.168-15.99-16-16zM16 30.933c-8.247 0-14.933-6.686-14.933-14.933s6.686-14.933 14.933-14.933 14.933 6.686 14.933 14.933c-0.009 8.243-6.69 14.924-14.933 14.933z"></path>
<path d="M16 2.667c-7.364 0-13.333 5.97-13.333 13.333s5.97 13.333 13.333 13.333 13.333-5.97 13.333-13.333c-0.008-7.36-5.973-13.325-13.333-13.333zM16 28.267c-6.775 0-12.267-5.492-12.267-12.267s5.492-12.267 12.267-12.267 12.267 5.492 12.267 12.267c-0.008 6.772-5.495 12.259-12.267 12.267z"></path>
<path d="M23.855 8.145c-0.17-0.169-0.431-0.204-0.64-0.086l-9.522 5.434c-0.006 0.004-0.008 0.010-0.014 0.014-0.061 0.052-0.118 0.109-0.171 0.171-0.003 0.006-0.010 0.009-0.013 0.014l-5.436 9.522c-0.119 0.209-0.084 0.471 0.086 0.641s0.433 0.205 0.641 0.086l9.52-5.434c0.006-0.004 0.008-0.010 0.014-0.014 0.061-0.052 0.118-0.109 0.171-0.171 0.003-0.006 0.010-0.009 0.013-0.014l5.436-9.52c0.12-0.209 0.085-0.473-0.086-0.643zM9.954 22.046l4.121-7.216 3.099 3.096zM17.925 17.173l-3.093-3.094 7.216-4.121z"></path>
<path d="M7.467 15.467h-2.133c-0.295 0-0.533 0.239-0.533 0.533s0.239 0.533 0.533 0.533h2.133c0.295 0 0.533-0.239 0.533-0.533s-0.239-0.533-0.533-0.533z"></path>
<path d="M26.667 15.467h-2.133c-0.295 0-0.533 0.239-0.533 0.533s0.239 0.533 0.533 0.533h2.133c0.295 0 0.533-0.239 0.533-0.533s-0.239-0.533-0.533-0.533z"></path>
<path d="M16 8c0.295 0 0.533-0.239 0.533-0.533v-2.133c0-0.295-0.239-0.533-0.533-0.533s-0.533 0.239-0.533 0.533v2.133c0 0.295 0.239 0.533 0.533 0.533z"></path>
<path d="M16 24c-0.295 0-0.533 0.239-0.533 0.533v2.133c0 0.295 0.239 0.533 0.533 0.533s0.533-0.239 0.533-0.533v-2.133c0-0.295-0.239-0.533-0.533-0.533z"></path>
</symbol>
<symbol id="email" viewBox="0 0 32 32">
<title>email</title>
<path d="M29.333 4h-26.667c-1.471 0-2.667 1.196-2.667 2.667v18.667c0 1.471 1.196 2.667 2.667 2.667h26.667c1.471 0 2.667-1.196 2.667-2.667v-18.667c0-1.471-1.196-2.667-2.667-2.667zM2.667 5.333h26.667c0.098 0 0.185 0.036 0.277 0.056-2.309 2.113-9.964 9.116-12.643 11.53-0.21 0.189-0.547 0.414-0.967 0.414s-0.758-0.225-0.968-0.415c-2.679-2.413-10.334-9.417-12.643-11.529 0.092-0.020 0.179-0.056 0.277-0.056zM1.333 25.333v-18.667c0-0.131 0.039-0.249 0.075-0.369 1.767 1.617 7.109 6.504 10.572 9.653-3.452 2.965-8.795 8.031-10.576 9.729-0.031-0.113-0.070-0.224-0.070-0.348zM29.333 26.667h-26.667c-0.107 0-0.201-0.037-0.301-0.061 1.84-1.755 7.217-6.849 10.609-9.751-0.023-0.015 0.356 0.329 0.736 0.672l0.428 0.382c0.55 0.496 1.193 0.758 1.861 0.758s1.311-0.262 1.86-0.757c0.819-0.735 1.198-1.079 1.577-1.424l-0.412 0.369c3.392 2.901 8.768 7.995 10.609 9.751-0.099 0.024-0.194 0.061-0.301 0.061zM30.667 25.333c0 0.123-0.039 0.234-0.070 0.348-1.782-1.699-7.124-6.764-10.576-9.729 3.464-3.15 8.804-8.036 10.572-9.653 0.035 0.119 0.075 0.238 0.075 0.369v18.667z"></path>
</symbol>
<symbol id="globe" viewBox="0 0 32 32">
<title>globe</title>
<path d="M27.314 4.686c-3.022-3.022-7.040-4.686-11.314-4.686s-8.291 1.664-11.314 4.686c-3.022 3.022-4.686 7.040-4.686 11.314s1.664 8.291 4.686 11.314c3.022 3.022 7.040 4.686 11.314 4.686s8.291-1.664 11.314-4.686c3.022-3.022 4.686-7.040 4.686-11.314s-1.664-8.291-4.686-11.314zM29.435 10.818c-0.312-0.562-1.096-0.829-2.12-1.178-1.099-0.374-1.488-1.504-1.938-2.813-0.39-1.136-0.794-2.309-1.752-3.038 2.623 1.662 4.641 4.073 5.775 6.931l0.034 0.098zM24.946 16.306c0.122 1.083 0.246 2.205-1.099 3.715-0.363 0.408-0.576 0.976-0.802 1.578-0.522 1.394-1.014 2.71-3.114 2.73-0.059-0.070-0.226-0.336-0.374-1.173-0.136-0.771-0.214-1.77-0.299-2.824-0.128-1.619-0.274-3.456-0.674-4.979-0.512-1.947-1.371-3.098-2.626-3.517-0.501-0.172-1.079-0.272-1.68-0.272-0.010 0-0.020 0-0.030 0h0.002c-0.445 0-0.848 0.048-1.203 0.090-0.277 0.032-0.539 0.064-0.76 0.064-0.374 0-0.798 0-1.322-1.197-0.75-1.72-0.197-4.477 2.006-5.931 1.208-0.797 2.042-1.138 2.787-1.138 0.595 0 1.237 0.206 2.147 0.693 0.716 0.407 1.573 0.647 2.486 0.647 0.016 0 0.033-0 0.049-0l-0.002 0c0.243 0 0.464-0.013 0.677-0.026 0.179-0.011 0.347-0.021 0.504-0.021 0.352 0 0.637 0.046 0.971 0.274 0.616 0.421 0.936 1.35 1.274 2.333 0.512 1.491 1.093 3.181 2.936 3.808 0.248 0.085 0.674 0.229 0.976 0.355-0.261 0.269-0.696 0.658-1.123 1.038-0.275 0.246-0.587 0.525-0.933 0.84-0.998 0.91-0.88 1.976-0.774 2.915zM1.602 15.877c0.173 0.030 0.358 0.067 0.55 0.107 0.899 0.192 1.32 0.365 1.504 0.462-0.085 0.165-0.256 0.408-0.37 0.568-0.395 0.562-0.888 1.261-0.701 2.030 0.126 0.52 0.019 1.157-0.165 1.746-0.52-1.424-0.821-3.067-0.821-4.781 0-0.004 0-0.009 0-0.013v0.001l0.002-0.123zM16 30.4c-5.459-0.004-10.207-3.043-12.65-7.52l-0.038-0.075c0.419-0.798 1.197-2.565 0.834-4.11 0.026-0.155 0.29-0.53 0.448-0.755 0.434-0.616 0.973-1.381 0.573-2.192-0.28-0.57-1.030-0.954-2.506-1.286-0.182-0.046-0.506-0.112-0.833-0.17l-0.126-0.019c0.858-7.128 6.941-12.67 14.296-12.67 2.525 0 4.899 0.654 6.963 1.8-0.375-0.163-0.812-0.258-1.271-0.258-0.026 0-0.052 0-0.077 0.001l0.004-0c-0.203 0-0.405 0.011-0.6 0.024-0.17 0.012-0.373 0.020-0.578 0.022l-0.005 0c-0.454 0-1.021-0.054-1.779-0.459-1.158-0.616-2.026-0.88-2.899-0.88-1.082 0-2.179 0.419-3.669 1.402-1.286 0.867-2.248 2.13-2.718 3.612l-0.013 0.048c-0.462 1.474-0.413 2.982 0.139 4.246 0.651 1.491 1.51 2.157 2.787 2.157 0.315 0 0.622-0.037 0.947-0.075 0.328-0.038 0.666-0.078 1.016-0.078 0.434 0 0.816 0.061 1.202 0.189 0.702 0.235 1.221 1.022 1.586 2.406s0.502 3.146 0.626 4.698c0.102 1.296 0.198 2.518 0.411 3.442 0.13 0.56 0.296 0.986 0.512 1.301 0.322 0.47 0.782 0.73 1.298 0.73 1.414 0 2.544-0.456 3.358-1.355 0.677-0.747 1.022-1.67 1.301-2.413 0.163-0.437 0.333-0.89 0.498-1.075 1.819-2.043 1.632-3.726 1.494-4.957-0.101-0.902-0.102-1.222 0.262-1.555 0.339-0.309 0.648-0.586 0.92-0.829 0.581-0.518 1-0.893 1.294-1.213 0.202-0.221 0.675-0.738 0.544-1.384l-0.003-0.018c0.549 1.522 0.848 3.162 0.848 4.87 0 7.941-6.459 14.4-14.4 14.4z"></path>
</symbol>
<symbol id="like" viewBox="0 0 32 32">
<title>like</title>
<path d="M23.667 1.333c-3.549 0-6.481 3.297-7.667 4.853-1.186-1.556-4.117-4.853-7.667-4.853-4.595 0-8.333 4.225-8.333 9.417 0 2.833 1.124 5.473 3.092 7.279 0.030 0.052 0.065 0.096 0.105 0.136l0 0 12.332 12.307c0.13 0.13 0.3 0.195 0.471 0.195s0.341-0.065 0.471-0.195l12.874-12.865c0.104-0.098 0.207-0.198 0.322-0.326 0.046-0.046 0.086-0.098 0.117-0.155l0.002-0.003c1.429-1.75 2.214-4.007 2.214-6.372 0-5.192-3.738-9.417-8.333-9.417zM28.676 16.372c-0.017 0.020-0.034 0.042-0.049 0.065l-0.001 0.002c-0.063 0.072-0.131 0.135-0.199 0.199l-12.428 12.419-11.708-11.684c-0.040-0.078-0.092-0.143-0.154-0.198l-0.001-0.001c-1.782-1.556-2.803-3.898-2.803-6.425 0-4.457 3.14-8.083 7-8.083 3.816 0 7.074 4.978 7.106 5.028 0.246 0.38 0.875 0.38 1.121 0 0.033-0.050 3.29-5.028 7.106-5.028 3.86 0 7 3.626 7 8.083 0 2.1-0.707 4.097-1.99 5.622z"></path>
</symbol>
<symbol id="money" viewBox="0 0 32 32">
<title>money</title>
<path d="M3.822 28.747v1.12c0 1.178 0.955 2.133 2.133 2.133v0h5.244c1.178 0 2.133-0.955 2.133-2.133v0-1.067h5.333v1.067c0 1.178 0.955 2.133 2.133 2.133v0h5.244c1.178 0 2.133-0.955 2.133-2.133v0-1.111c1.267-0.22 2.219-1.309 2.222-2.621v-23.467c-0.002-1.472-1.195-2.665-2.666-2.667h-23.376c-1.472 0.002-2.665 1.195-2.667 2.667v2.134c0 0.295 0.239 0.533 0.533 0.533s0.533-0.239 0.533-0.533v0-2.133c0-0.884 0.716-1.6 1.6-1.6v0h23.376c0.884 0 1.6 0.716 1.6 1.6v0 23.467c0 0.884-0.716 1.6-1.6 1.6v0h-23.376c-0.884 0-1.6-0.716-1.6-1.6v0-18.667c0-0.295-0.239-0.533-0.533-0.533s-0.533 0.239-0.533 0.533v0 18.667c0.002 1.283 0.907 2.354 2.114 2.61l0.017 0.003zM27.111 28.8v1.067c0 0.589-0.478 1.067-1.067 1.067v0h-5.244c-0.589 0-1.067-0.478-1.067-1.067v0-1.067zM12.267 28.8v1.067c0 0.589-0.478 1.067-1.067 1.067v0h-5.244c-0.589 0-1.067-0.478-1.067-1.067v0-1.067z"></path>
<path d="M5.867 18.133c-0.295 0-0.533 0.239-0.533 0.533v0 4.8c0 0.884 0.716 1.6 1.6 1.6v0h18.133c0.884 0 1.6-0.716 1.6-1.6v0-0.533c0.884 0 1.6-0.716 1.6-1.6v0-3.2c0-0.884-0.716-1.6-1.6-1.6v0-4.267c0.884 0 1.6-0.716 1.6-1.6v0-3.2c0-0.884-0.716-1.6-1.6-1.6v0-0.533c0-0.884-0.716-1.6-1.6-1.6v0h-18.133c-0.884 0-1.6 0.716-1.6 1.6v0 10.667c0 0.295 0.239 0.533 0.533 0.533s0.533-0.239 0.533-0.533v0-10.667c0-0.295 0.239-0.533 0.533-0.533v0h18.133c0.295 0 0.533 0.239 0.533 0.533v0 0.533c-0.884 0-1.6 0.716-1.6 1.6v0 3.2c0 0.884 0.716 1.6 1.6 1.6v0 4.267c-0.884 0-1.6 0.716-1.6 1.6v0 3.2c0 0.884 0.716 1.6 1.6 1.6v0 0.533c0 0.295-0.239 0.533-0.533 0.533v0h-18.133c-0.295 0-0.533-0.239-0.533-0.533v0-4.8c0-0.295-0.239-0.533-0.533-0.533v0zM25.067 10.667v-3.2c0-0.295 0.239-0.533 0.533-0.533v0h1.067c0.295 0 0.533 0.239 0.533 0.533v0 3.2c0 0.295-0.239 0.533-0.533 0.533v0h-1.067c-0.295 0-0.533-0.239-0.533-0.533v0zM25.067 21.333v-3.2c0-0.295 0.239-0.533 0.533-0.533v0h1.067c0.295 0 0.533 0.239 0.533 0.533v0 3.2c0 0.295-0.239 0.533-0.533 0.533v0h-1.067c-0.295 0-0.533-0.239-0.533-0.533v0z"></path>
<path d="M10.087 16.849c0.987 2.339 3.262 3.951 5.913 3.951 3.535 0 6.4-2.865 6.4-6.4s-2.865-6.4-6.4-6.4c-2.651 0-4.926 1.612-5.897 3.909l-0.016 0.042c-0.31 0.723-0.491 1.565-0.491 2.449s0.181 1.726 0.507 2.491l-0.016-0.041zM13.476 9.702l0.194 0.468c0.080 0.2 0.272 0.34 0.497 0.34 0.295 0 0.533-0.239 0.533-0.533 0-0.078-0.017-0.152-0.047-0.218l0.001 0.003-0.194-0.468c0.46-0.145 0.989-0.229 1.538-0.229s1.078 0.084 1.576 0.239l-0.037-0.010-0.194 0.468c-0.029 0.063-0.045 0.137-0.045 0.215 0 0.295 0.239 0.533 0.533 0.533 0.225 0 0.417-0.139 0.496-0.336l0.001-0.004 0.194-0.469c0.929 0.503 1.672 1.246 2.161 2.148l0.014 0.028-0.468 0.194c-0.2 0.080-0.34 0.272-0.34 0.497 0 0.295 0.239 0.533 0.533 0.533 0.078 0 0.152-0.017 0.218-0.047l-0.003 0.001 0.468-0.194c0.145 0.46 0.229 0.989 0.229 1.538s-0.084 1.078-0.239 1.576l0.010-0.037-0.468-0.194c-0.063-0.029-0.137-0.045-0.215-0.045-0.295 0-0.533 0.239-0.533 0.533 0 0.225 0.139 0.417 0.336 0.496l0.004 0.001 0.469 0.194c-0.503 0.929-1.246 1.672-2.148 2.161l-0.028 0.014-0.194-0.468c-0.080-0.2-0.272-0.34-0.497-0.34-0.295 0-0.533 0.239-0.533 0.533 0 0.078 0.017 0.152 0.047 0.218l-0.001-0.003 0.194 0.468c-0.46 0.145-0.989 0.229-1.538 0.229s-1.078-0.084-1.576-0.239l0.037 0.010 0.194-0.468c0.029-0.063 0.045-0.137 0.045-0.215 0-0.295-0.239-0.533-0.533-0.533-0.225 0-0.417 0.139-0.496 0.336l-0.001 0.004-0.194 0.469c-0.929-0.503-1.672-1.246-2.161-2.148l-0.014-0.028 0.468-0.194c0.2-0.080 0.34-0.272 0.34-0.497 0-0.295-0.239-0.533-0.533-0.533-0.078 0-0.152 0.017-0.218 0.047l0.003-0.001-0.468 0.194c-0.145-0.46-0.229-0.989-0.229-1.538s0.084-1.078 0.239-1.576l-0.010 0.037 0.468 0.194c0.063 0.029 0.137 0.045 0.215 0.045 0.295 0 0.533-0.239 0.533-0.533 0-0.225-0.139-0.417-0.336-0.496l-0.004-0.001-0.469-0.194c0.503-0.93 1.246-1.673 2.148-2.162l0.028-0.014z"></path>
<path d="M16.004 17.6c1.765-0.003 3.195-1.434 3.195-3.2 0-1.767-1.433-3.2-3.2-3.2-0.002 0-0.004 0-0.005 0h0c-1.765 0.003-3.195 1.434-3.195 3.2 0 1.767 1.433 3.2 3.2 3.2 0.002 0 0.004 0 0.005 0h-0zM15.183 12.427c0.24-0.102 0.52-0.161 0.814-0.161 1.178 0 2.133 0.955 2.133 2.133s-0.955 2.133-2.133 2.133c-0.883 0-1.641-0.537-1.965-1.302l-0.005-0.014c-0.104-0.242-0.165-0.524-0.165-0.821 0-0.884 0.54-1.643 1.307-1.964l0.014-0.005zM10.667 5.867h-2.667c-0.295 0-0.533 0.239-0.533 0.533v0 2.667c0 0.295 0.239 0.533 0.533 0.533s0.533-0.239 0.533-0.533v0-2.133h2.133c0.295 0 0.533-0.239 0.533-0.533s-0.239-0.533-0.533-0.533v0z"></path>
</symbol>
<symbol id="setting" viewBox="0 0 32 32">
<title>setting</title>
<path d="M12.21 31.523c-0 0-0 0-0.001 0-0.071 0-0.14-0.009-0.205-0.027l0.005 0.001c-1.557-0.407-2.922-0.987-4.175-1.735l0.073 0.040c-0.238-0.141-0.395-0.397-0.395-0.69 0-0.141 0.036-0.273 0.1-0.387l-0.002 0.004c0.244-0.441 0.387-0.967 0.387-1.526 0-1.769-1.434-3.203-3.203-3.203-0.559 0-1.085 0.143-1.543 0.395l0.017-0.008c-0.111 0.062-0.243 0.098-0.383 0.098-0.293 0-0.549-0.157-0.688-0.392l-0.002-0.004c-0.707-1.181-1.287-2.546-1.669-3.991l-0.025-0.111c-0.016-0.060-0.025-0.128-0.025-0.199 0-0.351 0.226-0.648 0.539-0.757l0.006-0.002c1.278-0.439 2.18-1.63 2.18-3.032s-0.902-2.593-2.158-3.025l-0.022-0.007c-0.32-0.11-0.545-0.408-0.545-0.758 0-0.071 0.009-0.139 0.026-0.204l-0.001 0.006c0.407-1.557 0.987-2.922 1.735-4.175l-0.040 0.073c0.141-0.238 0.397-0.395 0.69-0.395 0.141 0 0.273 0.036 0.388 0.1l-0.004-0.002c0.442 0.245 0.969 0.389 1.53 0.389 1.768 0 3.202-1.433 3.202-3.202 0-0.561-0.144-1.088-0.398-1.547l0.008 0.016c-0.062-0.111-0.098-0.243-0.098-0.383 0-0.293 0.157-0.549 0.392-0.688l0.004-0.002c1.181-0.707 2.546-1.287 3.991-1.669l0.111-0.025c0.060-0.016 0.128-0.025 0.199-0.025 0.351 0 0.649 0.226 0.757 0.539l0.002 0.006c0.439 1.278 1.63 2.18 3.032 2.18s2.593-0.902 3.025-2.158l0.007-0.022c0.11-0.32 0.408-0.545 0.758-0.545 0.071 0 0.139 0.009 0.204 0.026l-0.006-0.001c1.557 0.407 2.922 0.987 4.175 1.735l-0.073-0.040c0.238 0.141 0.395 0.397 0.395 0.69 0 0.141-0.036 0.273-0.1 0.388l0.002-0.004c-0.244 0.441-0.387 0.967-0.387 1.526 0 1.769 1.434 3.203 3.203 3.203 0.559 0 1.085-0.143 1.543-0.395l-0.017 0.008c0.111-0.062 0.243-0.098 0.383-0.098 0.293 0 0.549 0.157 0.688 0.392l0.002 0.004c0.707 1.181 1.287 2.546 1.669 3.991l0.025 0.111c0.016 0.060 0.025 0.128 0.025 0.199 0 0.351-0.226 0.649-0.539 0.757l-0.006 0.002c-1.278 0.439-2.18 1.63-2.18 3.032s0.902 2.593 2.158 3.025l0.023 0.007c0.32 0.11 0.545 0.408 0.545 0.758 0 0.071-0.009 0.139-0.026 0.204l0.001-0.006c-0.407 1.557-0.987 2.922-1.735 4.175l0.040-0.073c-0.141 0.238-0.397 0.395-0.69 0.395-0.141 0-0.273-0.036-0.387-0.1l0.004 0.002c-0.441-0.244-0.967-0.387-1.526-0.387-1.769 0-3.203 1.434-3.203 3.203 0 0.559 0.143 1.085 0.395 1.543l-0.008-0.017c0.062 0.111 0.098 0.243 0.098 0.383 0 0.293-0.157 0.549-0.392 0.688l-0.004 0.002c-1.181 0.707-2.546 1.287-3.991 1.669l-0.111 0.025c-0.060 0.016-0.128 0.025-0.199 0.025-0.351 0-0.648-0.226-0.757-0.539l-0.002-0.006c-0.439-1.278-1.63-2.18-3.032-2.18s-2.593 0.902-3.025 2.158l-0.007 0.023c-0.11 0.319-0.408 0.545-0.758 0.546h-0zM16 27.2c0 0 0.001 0 0.001 0 1.833 0 3.426 1.027 4.234 2.537l0.013 0.026c0.935-0.292 1.735-0.63 2.494-1.033l-0.078 0.038c-0.165-0.465-0.26-1.001-0.26-1.559 0-2.654 2.152-4.806 4.806-4.806 0.558 0 1.094 0.095 1.593 0.27l-0.034-0.010c0.405-0.774 0.739-1.582 0.995-2.416-1.538-0.82-2.567-2.414-2.567-4.248s1.029-3.428 2.541-4.235l0.026-0.013c-0.292-0.935-0.63-1.735-1.033-2.494l0.038 0.078c-0.465 0.165-1.001 0.26-1.559 0.26-2.654 0-4.806-2.152-4.806-4.806 0-0.558 0.095-1.094 0.27-1.593l-0.010 0.034c-0.682-0.367-1.482-0.705-2.315-0.968l-0.101-0.027c-0.82 1.538-2.414 2.567-4.248 2.567s-3.428-1.029-4.235-2.541l-0.013-0.026c-0.832 0.256-1.642 0.59-2.416 0.995 0.165 0.465 0.26 1.001 0.26 1.559 0 2.655-2.152 4.806-4.806 4.806-0.558 0-1.094-0.095-1.593-0.27l0.034 0.010c-0.367 0.682-0.705 1.482-0.968 2.315l-0.027 0.101c1.538 0.82 2.567 2.414 2.567 4.248s-1.029 3.428-2.541 4.235l-0.026 0.013c0.256 0.832 0.59 1.642 0.995 2.416 0.465-0.165 1.001-0.26 1.559-0.26 2.655 0 4.806 2.152 4.806 4.806 0 0.558-0.095 1.094-0.27 1.593l0.010-0.034c0.774 0.405 1.582 0.739 2.416 0.995 0.82-1.536 2.413-2.563 4.245-2.563 0.001 0 0.002 0 0.003 0h-0z"></path>
<path d="M16 20.8c-2.646 0-4.8-2.154-4.8-4.8s2.154-4.8 4.8-4.8 4.8 2.154 4.8 4.8-2.154 4.8-4.8 4.8zM16 12.8c-1.765 0-3.2 1.435-3.2 3.2s1.435 3.2 3.2 3.2 3.2-1.435 3.2-3.2-1.435-3.2-3.2-3.2z"></path>
</symbol>
<symbol id="share" viewBox="0 0 32 32">
<title>share</title>
<path d="M26.4 19.2c-2.093 0-3.899 1.168-4.861 2.873l-10.488-4.034c0.091-0.4 0.149-0.812 0.149-1.239 0-0.554-0.106-1.079-0.256-1.585l10.768-4.971c1 1.534 2.724 2.555 4.688 2.555 3.088 0 5.6-2.512 5.6-5.6s-2.512-5.6-5.6-5.6-5.6 2.513-5.6 5.6c0 0.554 0.106 1.079 0.256 1.585l-10.768 4.971c-1-1.534-2.724-2.555-4.688-2.555-3.088 0-5.6 2.512-5.6 5.6s2.513 5.6 5.6 5.6c2.093 0 3.9-1.168 4.861-2.873l10.488 4.034c-0.091 0.4-0.149 0.812-0.149 1.239 0 3.088 2.512 5.6 5.6 5.6s5.6-2.512 5.6-5.6c-0-3.088-2.513-5.6-5.6-5.6zM26.4 3.2c2.205 0 4 1.795 4 4s-1.795 4-4 4-4-1.795-4-4 1.795-4 4-4zM5.6 20.8c-2.205 0-4-1.795-4-4s1.795-4 4-4 4 1.795 4 4-1.795 4-4 4zM26.4 28.8c-2.205 0-4-1.795-4-4s1.795-4 4-4 4 1.795 4 4-1.795 4-4 4z"></path>
</symbol>
<symbol id="submit" viewBox="0 0 32 32">
<title>submit</title>
<path d="M31.453 14.588l-17.007-12.202c-1.127-0.605-2.419-0.748-2.42 1.581v5.311l-9.606-6.892c-1.127-0.606-2.451-0.624-2.419 1.643v23.97c0.032 2.047 1.386 2.344 2.42 1.675l9.606-6.893v5.249c0.001 1.985 1.387 2.313 2.42 1.644l17.007-12.202c0.711-0.514 0.746-2.371-0.001-2.883zM14.030 27.243v-8.41l-12.026 8.41v-22.427l12.026 8.41v-8.41l16.035 11.213-16.035 11.213z"></path>
</symbol>
</defs>
</svg>
