<svg aria-hidden="true" style="position:absolute;width:0;height:0" xmlns="http://www.w3.org/2000/svg" overflow="hidden"><defs><symbol id="cart" viewBox="0 0 32 32"><path d="M20.664 18.499a.625.625 0 000 1.25h7.467a.626.626 0 00.604-.464L31.979 7.1a.626.626 0 00-.604-.786h-8.694c-.308-2.374-2.341-4.215-4.798-4.215s-4.49 1.84-4.798 4.215H5.924v-.912A2.276 2.276 0 003.65 3.128H.626a.625.625 0 000 1.25h3.025c.565 0 1.024.46 1.024 1.024v10.837a3.5 3.5 0 001.209 2.647 2.975 2.975 0 00-1.508 2.586 2.977 2.977 0 002.973 2.973h.154a3.333 3.333 0 00-.744 2.102c0 1.848 1.504 3.352 3.352 3.352s3.352-1.504 3.352-3.352c0-.796-.279-1.527-.744-2.102h7.693l-.009.011a3.327 3.327 0 00-.711 2.465c.187 1.67 1.641 2.979 3.325 2.979a3.37 3.37 0 002.626-1.261c.559-.7.811-1.575.711-2.465a3.33 3.33 0 00-.723-1.728h2.5a.625.625 0 000-1.25H7.348c-.95 0-1.723-.773-1.723-1.723s.773-1.723 1.723-1.723h7.826a.625.625 0 000-1.25H8.185c-1.231 0-2.262-1.029-2.262-2.26V7.565h7.16c.308 2.378 2.405 4.215 4.8 4.215s4.492-1.839 4.8-4.215h7.879L27.651 18.5zm-8.451 8.049c0 1.159-.943 2.102-2.102 2.102s-2.102-.943-2.102-2.102c0-1.159.943-2.102 2.102-2.102s2.102.943 2.102 2.102zm12.899-.235c.063.558-.096 1.107-.446 1.546s-.85.715-1.408.778a2.104 2.104 0 01-2.323-1.855c-.139-1.234.858-2.337 2.096-2.337a2.105 2.105 0 012.082 1.868zM17.883 3.35c1.979 0 3.59 1.61 3.59 3.59s-1.61 3.59-3.59 3.59-3.59-1.61-3.59-3.59c0-1.979 1.61-3.59 3.59-3.59z"/><path d="M16.177 7.57h1.081v1.081a.625.625 0 001.25 0V7.57h1.081a.625.625 0 000-1.25h-1.081V5.239a.625.625 0 00-1.25 0V6.32h-1.081a.625.625 0 000 1.25zm2.288 11.207a.63.63 0 00-.701-.251.63.63 0 00-.444.598c-.002.55.697.832 1.077.432a.63.63 0 00.068-.779z"/></symbol><symbol id="call" viewBox="0 0 32 32"><path d="M31.16 24.686l-6.477-4.319a1.89 1.89 0 00-2.531.411l-1.887 2.426a.805.805 0 01-1.038.215l.004.002-.359-.198c-1.19-.648-2.67-1.456-5.652-4.439s-3.791-4.465-4.44-5.652l-.197-.359a.808.808 0 01.211-1.036l.002-.001L11.22 9.85a1.89 1.89 0 00.412-2.531L7.313.842A1.88 1.88 0 004.778.271L2.07 1.898A3.839 3.839 0 00.335 4.132l-.007.027c-.975 3.554-.242 9.687 8.793 18.722C16.308 30.067 21.658 32 25.335 32h.04c.877 0 1.726-.12 2.532-.343l-.066.016a3.834 3.834 0 002.251-1.725l.01-.018 1.629-2.707a1.88 1.88 0 00-.57-2.536zm-.348 1.989l-1.625 2.708a2.774 2.774 0 01-1.607 1.256l-.019.005c-3.281.901-9.012.155-17.685-8.519S.457 7.721 1.357 4.44a2.778 2.778 0 011.249-1.622l.013-.007 2.708-1.625a.816.816 0 011.1.247l4.316 6.476a.822.822 0 01-.178 1.099L8.14 10.894a1.865 1.865 0 00-.494 2.395l.193.35c.682 1.25 1.529 2.805 4.622 5.898s4.648 3.94 5.897 4.622l.35.193c.81.454 1.831.244 2.395-.494l1.886-2.425a.822.822 0 011.099-.178l6.476 4.319a.814.814 0 01.247 1.1zM18.132 5.336c5.004.006 9.06 4.061 9.065 9.065a.533.533 0 101.066 0c-.006-5.593-4.539-10.126-10.132-10.132a.533.533 0 100 1.066z"/><path d="M18.132 8.536a5.873 5.873 0 015.866 5.866.533.533 0 001.066 0 6.94 6.94 0 00-6.932-6.932.533.533 0 100 1.066z"/><path d="M18.132 11.735a2.67 2.67 0 012.666 2.666.533.533 0 001.066 0 3.737 3.737 0 00-3.733-3.733.533.533 0 100 1.066z"/></symbol><symbol id="clock" viewBox="0 0 32 32"><path d="M16 32C7.177 32 0 24.823 0 16S7.177 0 16 0s16 7.177 16 16-7.177 16-16 16zm0-30C8.28 2 2 8.28 2 16s6.28 14 14 14 14-6.28 14-14S23.72 2 16 2z"/><path d="M23 24.667a.993.993 0 01-.707-.293l-7-7a1 1 0 01-.293-.707V7.333a1 1 0 012 0v8.919l6.707 6.707A1 1 0 0123 24.667z"/></symbol><symbol id="compass" viewBox="0 0 32 32"><path d="M16 0C7.164 0 0 7.164 0 16s7.164 16 16 16 16-7.164 16-16C31.99 7.168 24.832.01 16 0zm0 30.933C7.753 30.933 1.067 24.247 1.067 16S7.753 1.067 16 1.067 30.933 7.753 30.933 16c-.009 8.243-6.69 14.924-14.933 14.933z"/><path d="M16 2.667C8.636 2.667 2.667 8.637 2.667 16S8.637 29.333 16 29.333 29.333 23.363 29.333 16C29.325 8.64 23.36 2.675 16 2.667zm0 25.6C9.225 28.267 3.733 22.775 3.733 16S9.225 3.733 16 3.733 28.267 9.225 28.267 16C28.259 22.772 22.772 28.259 16 28.267z"/><path d="M23.855 8.145a.534.534 0 00-.64-.086l-9.522 5.434c-.006.004-.008.01-.014.014a1.534 1.534 0 00-.171.171c-.003.006-.01.009-.013.014l-5.436 9.522a.533.533 0 00.727.727l9.52-5.434c.006-.004.008-.01.014-.014.061-.052.118-.109.171-.171.003-.006.01-.009.013-.014l5.436-9.52a.533.533 0 00-.086-.643zM9.954 22.046l4.121-7.216 3.099 3.096zm7.971-4.873l-3.093-3.094 7.216-4.121zM7.467 15.467H5.334a.533.533 0 100 1.066h2.133a.533.533 0 100-1.066zm19.2 0h-2.133a.533.533 0 100 1.066h2.133a.533.533 0 100-1.066zM16 8a.533.533 0 00.533-.533V5.334a.533.533 0 10-1.066 0v2.133c0 .295.239.533.533.533zm0 16a.533.533 0 00-.533.533v2.133a.533.533 0 101.066 0v-2.133A.533.533 0 0016 24z"/></symbol><symbol id="email" viewBox="0 0 32 32"><path d="M29.333 4H2.666A2.67 2.67 0 00-.001 6.667v18.667a2.67 2.67 0 002.667 2.667h26.667A2.67 2.67 0 0032 25.334V6.667A2.67 2.67 0 0029.333 4zM2.667 5.333h26.667c.098 0 .185.036.277.056-2.309 2.113-9.964 9.116-12.643 11.53-.21.189-.547.414-.967.414s-.758-.225-.968-.415C12.354 14.505 4.699 7.501 2.39 5.389c.092-.02.179-.056.277-.056zm-1.334 20V6.666c0-.131.039-.249.075-.369 1.767 1.617 7.109 6.504 10.572 9.653-3.452 2.965-8.795 8.031-10.576 9.729-.031-.113-.07-.224-.07-.348zm28 1.334H2.666c-.107 0-.201-.037-.301-.061 1.84-1.755 7.217-6.849 10.609-9.751-.023-.015.356.329.736.672l.428.382c.55.496 1.193.758 1.861.758s1.311-.262 1.86-.757c.819-.735 1.198-1.079 1.577-1.424l-.412.369c3.392 2.901 8.768 7.995 10.609 9.751-.099.024-.194.061-.301.061zm1.334-1.334c0 .123-.039.234-.07.348-1.782-1.699-7.124-6.764-10.576-9.729 3.464-3.15 8.804-8.036 10.572-9.653.035.119.075.238.075.369v18.667z"/></symbol><symbol id="globe" viewBox="0 0 32 32"><path d="M27.314 4.686C24.292 1.664 20.274 0 16 0S7.709 1.664 4.686 4.686C1.664 7.708 0 11.726 0 16s1.664 8.291 4.686 11.314C7.708 30.336 11.726 32 16 32s8.291-1.664 11.314-4.686C30.336 24.292 32 20.274 32 16s-1.664-8.291-4.686-11.314zm2.121 6.132c-.312-.562-1.096-.829-2.12-1.178-1.099-.374-1.488-1.504-1.938-2.813-.39-1.136-.794-2.309-1.752-3.038 2.623 1.662 4.641 4.073 5.775 6.931l.034.098zm-4.489 5.488c.122 1.083.246 2.205-1.099 3.715-.363.408-.576.976-.802 1.578-.522 1.394-1.014 2.71-3.114 2.73-.059-.07-.226-.336-.374-1.173-.136-.771-.214-1.77-.299-2.824-.128-1.619-.274-3.456-.674-4.979-.512-1.947-1.371-3.098-2.626-3.517a5.227 5.227 0 00-1.68-.272h-.03.002c-.445 0-.848.048-1.203.09-.277.032-.539.064-.76.064-.374 0-.798 0-1.322-1.197-.75-1.72-.197-4.477 2.006-5.931 1.208-.797 2.042-1.138 2.787-1.138.595 0 1.237.206 2.147.693a5.04 5.04 0 002.486.647h.049-.002c.243 0 .464-.013.677-.026.179-.011.347-.021.504-.021.352 0 .637.046.971.274.616.421.936 1.35 1.274 2.333.512 1.491 1.093 3.181 2.936 3.808.248.085.674.229.976.355-.261.269-.696.658-1.123 1.038-.275.246-.587.525-.933.84-.998.91-.88 1.976-.774 2.915zm-23.344-.429c.173.03.358.067.55.107.899.192 1.32.365 1.504.462a5.671 5.671 0 01-.37.568c-.395.562-.888 1.261-.701 2.03.126.52.019 1.157-.165 1.746-.52-1.424-.821-3.067-.821-4.781v-.013.001l.002-.123zM16 30.4c-5.459-.004-10.207-3.043-12.65-7.52l-.038-.075c.419-.798 1.197-2.565.834-4.11.026-.155.29-.53.448-.755.434-.616.973-1.381.573-2.192-.28-.57-1.03-.954-2.506-1.286a13.754 13.754 0 00-.833-.17l-.126-.019c.858-7.128 6.941-12.67 14.296-12.67 2.525 0 4.899.654 6.963 1.8a3.208 3.208 0 00-1.271-.258l-.077.001h.004c-.203 0-.405.011-.6.024a9.83 9.83 0 01-.578.022h-.005c-.454 0-1.021-.054-1.779-.459-1.158-.616-2.026-.88-2.899-.88-1.082 0-2.179.419-3.669 1.402a6.858 6.858 0 00-2.718 3.612l-.013.048c-.462 1.474-.413 2.982.139 4.246.651 1.491 1.51 2.157 2.787 2.157.315 0 .622-.037.947-.075.328-.038.666-.078 1.016-.078.434 0 .816.061 1.202.189.702.235 1.221 1.022 1.586 2.406s.502 3.146.626 4.698c.102 1.296.198 2.518.411 3.442.13.56.296.986.512 1.301.322.47.782.73 1.298.73 1.414 0 2.544-.456 3.358-1.355.677-.747 1.022-1.67 1.301-2.413.163-.437.333-.89.498-1.075 1.819-2.043 1.632-3.726 1.494-4.957-.101-.902-.102-1.222.262-1.555.339-.309.648-.586.92-.829.581-.518 1-.893 1.294-1.213.202-.221.675-.738.544-1.384l-.003-.018c.549 1.522.848 3.162.848 4.87 0 7.941-6.459 14.4-14.4 14.4z"/></symbol><symbol id="like" viewBox="0 0 32 32"><path d="M23.667 1.333c-3.549 0-6.481 3.297-7.667 4.853-1.186-1.556-4.117-4.853-7.667-4.853C3.738 1.333 0 5.558 0 10.75c0 2.833 1.124 5.473 3.092 7.279.03.052.065.096.105.136l12.332 12.307a.663.663 0 00.942 0l12.874-12.865a5.27 5.27 0 00.322-.326.68.68 0 00.117-.155l.002-.003C31.215 15.373 32 13.116 32 10.751c0-5.192-3.738-9.417-8.333-9.417zm5.009 15.039a.65.65 0 00-.049.065l-.001.002c-.063.072-.131.135-.199.199L15.999 29.057 4.291 17.373a.672.672 0 00-.154-.198l-.001-.001c-1.782-1.556-2.803-3.898-2.803-6.425 0-4.457 3.14-8.083 7-8.083 3.816 0 7.074 4.978 7.106 5.028.246.38.875.38 1.121 0 .033-.05 3.29-5.028 7.106-5.028 3.86 0 7 3.626 7 8.083 0 2.1-.707 4.097-1.99 5.622z"/></symbol><symbol id="money" viewBox="0 0 32 32"><path d="M3.822 28.747v1.12c0 1.178.955 2.133 2.133 2.133h5.244a2.133 2.133 0 002.133-2.133V28.8h5.333v1.067c0 1.178.955 2.133 2.133 2.133h5.244a2.133 2.133 0 002.133-2.133v-1.111a2.67 2.67 0 002.222-2.621V2.668A2.67 2.67 0 0027.731.001H4.355a2.67 2.67 0 00-2.667 2.667v2.134a.533.533 0 101.066 0V2.669a1.6 1.6 0 011.6-1.6H27.73a1.6 1.6 0 011.6 1.6v23.467a1.6 1.6 0 01-1.6 1.6H4.354a1.6 1.6 0 01-1.6-1.6V7.469a.533.533 0 10-1.066 0v18.667a2.672 2.672 0 002.114 2.61l.017.003zm23.289.053v1.067c0 .589-.478 1.067-1.067 1.067H20.8a1.067 1.067 0 01-1.067-1.067V28.8zm-14.844 0v1.067c0 .589-.478 1.067-1.067 1.067H5.956a1.067 1.067 0 01-1.067-1.067V28.8z"/><path d="M5.867 18.133a.533.533 0 00-.533.533v4.8a1.6 1.6 0 001.6 1.6h18.133a1.6 1.6 0 001.6-1.6v-.533a1.6 1.6 0 001.6-1.6v-3.2a1.6 1.6 0 00-1.6-1.6v-4.267a1.6 1.6 0 001.6-1.6v-3.2a1.6 1.6 0 00-1.6-1.6v-.533a1.6 1.6 0 00-1.6-1.6H6.934a1.6 1.6 0 00-1.6 1.6V16A.533.533 0 106.4 16V5.333c0-.295.239-.533.533-.533h18.133c.295 0 .533.239.533.533v.533a1.6 1.6 0 00-1.6 1.6v3.2a1.6 1.6 0 001.6 1.6v4.267a1.6 1.6 0 00-1.6 1.6v3.2a1.6 1.6 0 001.6 1.6v.533a.533.533 0 01-.533.533H6.933a.533.533 0 01-.533-.533v-4.8a.533.533 0 00-.533-.533zm19.2-7.466v-3.2c0-.295.239-.533.533-.533h1.067c.295 0 .533.239.533.533v3.2a.533.533 0 01-.533.533H25.6a.533.533 0 01-.533-.533zm0 10.666v-3.2c0-.295.239-.533.533-.533h1.067c.295 0 .533.239.533.533v3.2a.533.533 0 01-.533.533H25.6a.533.533 0 01-.533-.533z"/><path d="M10.087 16.849C11.074 19.188 13.349 20.8 16 20.8a6.4 6.4 0 006.4-6.4 6.4 6.4 0 00-12.297-2.491l-.016.042c-.31.723-.491 1.565-.491 2.449s.181 1.726.507 2.491l-.016-.041zm3.389-7.147l.194.468a.533.533 0 10.983-.411l.001.003-.194-.468a5.293 5.293 0 013.114.01l-.037-.01-.194.468a.533.533 0 10.984.412l.001-.004.194-.469a5.328 5.328 0 012.161 2.148l.014.028-.468.194a.533.533 0 10.411.983l-.003.001.468-.194a5.293 5.293 0 01-.01 3.114l.01-.037-.468-.194a.533.533 0 10-.412.984l.004.001.469.194a5.328 5.328 0 01-2.148 2.161l-.028.014-.194-.468a.533.533 0 10-.983.411l-.001-.003.194.468a5.293 5.293 0 01-3.114-.01l.037.01.194-.468a.533.533 0 10-.984-.412l-.001.004-.194.469a5.328 5.328 0 01-2.161-2.148l-.014-.028.468-.194a.533.533 0 10-.411-.983l.003-.001-.468.194a5.293 5.293 0 01.01-3.114l-.01.037.468.194a.533.533 0 10.412-.984l-.004-.001-.469-.194a5.324 5.324 0 012.148-2.162l.028-.014z"/><path d="M16.004 17.6a3.2 3.2 0 00-.005-6.4h-.005a3.2 3.2 0 00.005 6.4h.005zm-.821-5.173a2.133 2.133 0 11-1.151 2.803l-.005-.014a2.13 2.13 0 011.142-2.785l.014-.005zm-4.516-6.56H8a.533.533 0 00-.533.533v2.667a.533.533 0 101.066 0V6.934h2.133a.533.533 0 100-1.066z"/></symbol><symbol id="setting" viewBox="0 0 32 32"><path d="M12.21 31.523h-.001a.768.768 0 01-.205-.027l.005.001a15.86 15.86 0 01-4.175-1.735l.073.04a.8.8 0 01-.295-1.077l-.002.004a3.203 3.203 0 00-4.359-4.334l.017-.008a.798.798 0 01-1.071-.294l-.002-.004a15.598 15.598 0 01-1.669-3.991l-.025-.111a.802.802 0 01.514-.956l.006-.002c1.278-.439 2.18-1.63 2.18-3.032s-.902-2.593-2.158-3.025l-.022-.007a.801.801 0 01-.519-.962l-.001.006a15.86 15.86 0 011.735-4.175l-.04.073a.8.8 0 011.078-.295L3.27 7.61a3.202 3.202 0 004.334-4.36l.008.016a.798.798 0 01.294-1.071l.004-.002A15.598 15.598 0 0111.901.524l.111-.025a.801.801 0 01.956.514l.002.006c.439 1.278 1.63 2.18 3.032 2.18s2.593-.902 3.025-2.158l.007-.022A.801.801 0 0119.996.5L19.99.499a15.86 15.86 0 014.175 1.735l-.073-.04a.8.8 0 01.295 1.078l.002-.004a3.203 3.203 0 004.359 4.334l-.017.008a.798.798 0 011.071.294l.002.004a15.598 15.598 0 011.669 3.991l.025.111a.801.801 0 01-.514.956l-.006.002c-1.278.439-2.18 1.63-2.18 3.032s.902 2.593 2.158 3.025l.023.007a.801.801 0 01.519.962l.001-.006a15.86 15.86 0 01-1.735 4.175l.04-.073a.8.8 0 01-1.077.295l.004.002a3.203 3.203 0 00-4.334 4.359l-.008-.017a.798.798 0 01-.294 1.071l-.004.002a15.598 15.598 0 01-3.991 1.669l-.111.025a.802.802 0 01-.956-.514l-.002-.006c-.439-1.278-1.63-2.18-3.032-2.18s-2.593.902-3.025 2.158l-.007.023a.805.805 0 01-.758.546zM16 27.2h.001a4.798 4.798 0 014.234 2.537l.013.026c.935-.292 1.735-.63 2.494-1.033l-.078.038a4.806 4.806 0 016.139-6.095l-.034-.01c.405-.774.739-1.582.995-2.416-1.538-.82-2.567-2.414-2.567-4.248s1.029-3.428 2.541-4.235l.026-.013a14.313 14.313 0 00-1.033-2.494l.038.078a4.806 4.806 0 01-6.095-6.139l-.01.034a13.627 13.627 0 00-2.315-.968l-.101-.027c-.82 1.538-2.414 2.567-4.248 2.567s-3.428-1.029-4.235-2.541l-.013-.026c-.832.256-1.642.59-2.416.995a4.806 4.806 0 01-6.139 6.095l.034.01a13.627 13.627 0 00-.968 2.315l-.027.101c1.538.82 2.567 2.414 2.567 4.248s-1.029 3.428-2.541 4.235l-.026.013c.256.832.59 1.642.995 2.416a4.806 4.806 0 016.095 6.139l.01-.034c.774.405 1.582.739 2.416.995.82-1.536 2.413-2.563 4.245-2.563H16z"/><path d="M16 20.8c-2.646 0-4.8-2.154-4.8-4.8s2.154-4.8 4.8-4.8 4.8 2.154 4.8 4.8-2.154 4.8-4.8 4.8zm0-8c-1.765 0-3.2 1.435-3.2 3.2s1.435 3.2 3.2 3.2 3.2-1.435 3.2-3.2-1.435-3.2-3.2-3.2z"/></symbol><symbol id="share" viewBox="0 0 32 32"><path d="M26.4 19.2c-2.093 0-3.899 1.168-4.861 2.873l-10.488-4.034c.091-.4.149-.812.149-1.239 0-.554-.106-1.079-.256-1.585l10.768-4.971a5.593 5.593 0 004.688 2.555c3.088 0 5.6-2.512 5.6-5.6s-2.512-5.6-5.6-5.6-5.6 2.513-5.6 5.6c0 .554.106 1.079.256 1.585l-10.768 4.971A5.593 5.593 0 005.6 11.2c-3.088 0-5.6 2.512-5.6 5.6s2.513 5.6 5.6 5.6c2.093 0 3.9-1.168 4.861-2.873l10.488 4.034c-.091.4-.149.812-.149 1.239 0 3.088 2.512 5.6 5.6 5.6s5.6-2.512 5.6-5.6c0-3.088-2.513-5.6-5.6-5.6zm0-16c2.205 0 4 1.795 4 4s-1.795 4-4 4-4-1.795-4-4 1.795-4 4-4zM5.6 20.8c-2.205 0-4-1.795-4-4s1.795-4 4-4 4 1.795 4 4-1.795 4-4 4zm20.8 8c-2.205 0-4-1.795-4-4s1.795-4 4-4 4 1.795 4 4-1.795 4-4 4z"/></symbol><symbol id="submit" viewBox="0 0 32 32"><path d="M31.453 14.588L14.446 2.386c-1.127-.605-2.419-.748-2.42 1.581v5.311L2.42 2.386C1.293 1.78-.031 1.762.001 4.029v23.97c.032 2.047 1.386 2.344 2.42 1.675l9.606-6.893v5.249c.001 1.985 1.387 2.313 2.42 1.644l17.007-12.202c.711-.514.746-2.371-.001-2.883zM14.03 27.243v-8.41l-12.026 8.41V4.816l12.026 8.41v-8.41l16.035 11.213L14.03 27.242z"/></symbol></defs></svg>